<svg xmlns="http://www.w3.org/2000/svg" version="1.1" xmlns:xlink="http://www.w3.org/1999/xlink" xmlns:svgjs="http://svgjs.dev/svgjs" width="2000" height="489" viewBox="0 0 2000 489"><g transform="matrix(1,0,0,1,1.3147981010125704,-0.7191910450133321)"><svg viewBox="0 0 396 97" data-background-color="#ffffff" preserveAspectRatio="xMidYMid meet" height="489" width="2000" xmlns="http://www.w3.org/2000/svg" xmlns:xlink="http://www.w3.org/1999/xlink"><g id="tight-bounds" transform="matrix(1,0,0,1,0.2400000000000091,0.14266161833597835)"><svg viewBox="0 0 395.52 96.71467676332804" height="96.71467676332804" width="395.52"><g><svg viewBox="0 0 575.7834113539091 140.79365522547448" height="96.71467676332804" width="395.52"><g transform="matrix(1,0,0,1,180.26341135390913,19.93142461982572)"><svg viewBox="0 0 395.5199999999999 100.93080598582304" height="100.93080598582304" width="395.5199999999999"><g id="textblocktransform"><svg viewBox="0 0 395.5199999999999 100.93080598582304" height="100.93080598582304" width="395.5199999999999" id="textblock"><g><svg viewBox="0 0 395.5199999999999 100.93080598582304" height="100.93080598582304" width="395.5199999999999"><g transform="matrix(1,0,0,1,0,0)"><svg width="395.5199999999999" viewBox="4.5 -37 190.43 48.6" height="100.93080598582304" data-palette-color="#ffffff"><path d="M13.7 0.4L13.7 0.4Q10.85 0.4 8.72 0.25 6.6 0.1 4.5-0.1L4.5-0.1 4.5-34.9Q6.85-35.15 9.1-35.27 11.35-35.4 14.25-35.4L14.25-35.4Q18.75-35.4 22.03-34 25.3-32.6 27.43-30.15 29.55-27.7 30.58-24.48 31.6-21.25 31.6-17.55L31.6-17.55Q31.6-13.9 30.55-10.65 29.5-7.4 27.33-4.93 25.15-2.45 21.78-1.03 18.4 0.4 13.7 0.4ZM13.85-3.75L13.85-3.75Q18.35-3.75 21.2-5.5 24.05-7.25 25.4-10.38 26.75-13.5 26.75-17.55L26.75-17.55Q26.75-21.15 25.4-24.3 24.05-27.45 21.25-29.38 18.45-31.3 14.1-31.3L14.1-31.3Q12.65-31.3 11.45-31.23 10.25-31.15 9.25-31.05L9.25-31.05 9.25-4Q10.3-3.85 11.45-3.8 12.6-3.75 13.85-3.75ZM42.6 0L38.1 0 38.1-26 42.6-26 42.6 0ZM40.35-30.45L40.35-30.45Q39.05-30.45 38.12-31.4 37.2-32.35 37.2-33.6L37.2-33.6Q37.2-35.05 38.05-35.9 38.9-36.75 40.35-36.75L40.35-36.75Q41.65-36.75 42.57-35.83 43.5-34.9 43.5-33.6L43.5-33.6Q43.5-32.2 42.65-31.33 41.8-30.45 40.35-30.45ZM60.45 0.6L60.45 0.6Q57.25 0.6 54.6-1.05 51.95-2.7 50.4-5.73 48.85-8.75 48.85-12.85L48.85-12.85Q48.85-16.8 50.42-19.9 52-23 54.62-24.8 57.25-26.6 60.4-26.6L60.4-26.6Q63-26.6 64.87-25.55 66.75-24.5 67.8-23.4L67.8-23.4 67.8-37 72.3-37 72.3-6.3Q72.3-4.4 73.22-3.83 74.15-3.25 75.25-3.25L75.25-3.25 74.3 0.25Q69.55 0.25 68.5-3.55L68.5-3.55Q67.4-2 65.42-0.7 63.45 0.6 60.45 0.6ZM61.45-3.4L61.45-3.4Q63.3-3.4 64.97-4.28 66.65-5.15 67.8-6.55L67.8-6.55 67.8-19.45Q66.84-20.65 65.15-21.68 63.45-22.7 61.4-22.7L61.4-22.7Q59-22.7 57.2-21.4 55.4-20.1 54.42-17.93 53.45-15.75 53.45-13L53.45-13Q53.45-10.25 54.5-8.08 55.55-5.9 57.37-4.65 59.2-3.4 61.45-3.4ZM91.14 0.6L91.14 0.6Q85.54 0.6 82.27-2.98 78.99-6.55 78.99-13L78.99-13Q78.99-16.9 80.47-19.98 81.94-23.05 84.59-24.83 87.24-26.6 90.74-26.6L90.74-26.6Q94.49-26.6 96.97-24.98 99.44-23.35 100.69-20.6 101.94-17.85 101.94-14.55L101.94-14.55Q101.94-12.8 101.79-11.15L101.79-11.15 83.59-11.15Q84.04-7.5 86.14-5.45 88.24-3.4 91.69-3.4L91.69-3.4Q93.94-3.4 95.74-3.88 97.54-4.35 99.19-5.1L99.19-5.1 100.24-1.25Q98.44-0.45 96.19 0.08 93.94 0.6 91.14 0.6ZM83.54-14.8L83.54-14.8 97.79-14.8Q97.79-18.6 95.89-20.65 93.99-22.7 90.64-22.7L90.64-22.7Q87.74-22.7 85.84-20.68 83.94-18.65 83.54-14.8ZM114.94 0.6L114.94 0.6Q111.99 0.6 109.62-0.15 107.24-0.9 105.69-2.1L105.69-2.1 107.59-5.85Q108.89-4.75 110.87-4.03 112.84-3.3 115.09-3.3L115.09-3.3Q117.89-3.3 119.32-4.23 120.74-5.15 120.74-6.6L120.74-6.6Q120.74-7.65 120.22-8.45 119.69-9.25 118.29-10.03 116.89-10.8 114.24-11.7L114.24-11.7Q110.59-12.95 108.77-14.68 106.94-16.4 106.94-19.45L106.94-19.45Q106.94-22.45 109.57-24.53 112.19-26.6 116.84-26.6L116.84-26.6Q119.34-26.6 121.29-26.08 123.24-25.55 124.79-24.75L124.79-24.75 123.54-21.05Q122.19-21.85 120.47-22.35 118.74-22.85 116.64-22.85L116.64-22.85Q114.04-22.85 112.69-21.8 111.34-20.75 111.34-19.5L111.34-19.5Q111.34-18.3 112.39-17.45 113.44-16.6 116.49-15.6L116.49-15.6Q121.44-13.95 123.39-11.95 125.34-9.95 125.34-6.95L125.34-6.95Q125.34-3.45 122.52-1.43 119.69 0.6 114.94 0.6ZM135.84 0L131.34 0 131.34-26 135.84-26 135.84 0ZM133.59-30.45L133.59-30.45Q132.29-30.45 131.36-31.4 130.44-32.35 130.44-33.6L130.44-33.6Q130.44-35.05 131.29-35.9 132.14-36.75 133.59-36.75L133.59-36.75Q134.89-36.75 135.81-35.83 136.74-34.9 136.74-33.6L136.74-33.6Q136.74-32.2 135.89-31.33 135.04-30.45 133.59-30.45ZM153.39 11.6L153.39 11.6Q151.09 11.6 148.91 11.05 146.74 10.5 145.04 9.4L145.04 9.4 146.69 5.5Q147.89 6.45 149.49 7.08 151.09 7.7 153.39 7.7L153.39 7.7Q156.94 7.7 158.96 5.83 160.99 3.95 160.99-0.15L160.99-0.15 160.99-3.35Q159.99-2.15 158.11-1.07 156.24 0 153.64 0L153.64 0Q150.69 0 148.04-1.53 145.39-3.05 143.74-6 142.09-8.95 142.09-13.1L142.09-13.1Q142.09-17 143.71-20.05 145.34-23.1 148.09-24.85 150.84-26.6 154.14-26.6L154.14-26.6Q156.34-26.6 158.14-25.85 159.94-25.1 161.24-24L161.24-24 161.24-26 165.34-26 165.34-0.6Q165.34 3.7 163.84 6.4 162.34 9.1 159.66 10.35 156.99 11.6 153.39 11.6ZM154.64-4L154.64-4Q156.64-4 158.24-4.9 159.84-5.8 160.84-7L160.84-7 160.84-20.6Q159.74-21.4 158.19-22.05 156.64-22.7 154.59-22.7L154.59-22.7Q152.54-22.7 150.74-21.6 148.94-20.5 147.81-18.43 146.69-16.35 146.69-13.35L146.69-13.35Q146.69-10.5 147.81-8.4 148.94-6.3 150.74-5.15 152.54-4 154.64-4ZM177.58 0L173.08 0 173.08-26 177.43-26 177.43-21.65Q178.83-23.75 181.01-25.18 183.18-26.6 186.18-26.6L186.18-26.6Q190.58-26.6 192.76-23.95 194.93-21.3 194.93-16.95L194.93-16.95 194.93 0 190.43 0 190.43-16.45Q190.43-19.25 189.11-20.95 187.78-22.65 185.43-22.65L185.43-22.65Q183.13-22.65 181.08-21.03 179.03-19.4 177.58-17.2L177.58-17.2 177.58 0Z" opacity="1" transform="matrix(1,0,0,1,0,0)" fill="#ffffff" class="wordmark-text-0" data-fill-palette-color="primary" id="text-0"></path></svg></g></svg></g></svg></g></svg></g><g><svg viewBox="0 0 156.43607039999998 140.79365522547448" height="140.79365522547448" width="156.43607039999998"><g><svg xmlns="http://www.w3.org/2000/svg" xmlns:xlink="http://www.w3.org/1999/xlink" version="1.1" x="0" y="0" viewBox="5 9.499314302050466 90 81.00068569794954" style="enable-background:new 0 0 100 100;" xml:space="preserve" height="140.79365522547448" width="156.43607039999998" class="icon-icon-0" data-fill-palette-color="accent" id="icon-0"><path d="M5 59.139V46.926C5 45.807 5.919 44.892 7.045 44.892H28.626L19.23 61.175H7.045A2.044 2.044 0 0 1 5 59.139M20.373 84.147L13.486 88.813C12.559 89.443 11.904 89.044 12.032 87.932L12.951 79.948C13.079 78.836 13.981 78.382 14.956 78.938L20.286 81.983C21.26 82.541 21.3 83.519 20.373 84.147M22.027 79.647L16.697 76.601A2.026 2.026 0 0 1 15.946 73.825L40.627 31.041A2.054 2.054 0 0 1 43.423 30.292L48.753 33.33A2.04 2.04 0 0 1 49.504 36.112L24.823 78.899C24.264 79.869 23.001 80.202 22.027 79.647M40.811 61.175L50.207 44.892H55.617L63.247 61.175zM71.413 66.034C69.28 64.969 58.653 40.558 55.929 34.189S44.974 10.866 47.636 9.547C49.53 8.601 56.329 21.951 61.426 29.966 66.516 37.981 77.159 58.647 78.469 61 79.772 63.36 77.215 65.326 75.793 65.915S73.546 67.091 71.413 66.034M78.397 77.254L75.185 72.204C74.522 71.154 74.866 69.857 75.944 69.303L79.004 67.736C80.083 67.187 81.433 67.632 82.008 68.731L84.541 73.581C85.117 74.678 84.725 76.086 83.686 76.706L81.497 78.009C80.458 78.637 79.06 78.295 78.397 77.254M90.214 90.5C89.543 88.361 84.421 88.219 82.128 84.997 79.827 81.786 81.729 80.132 82.528 79.368 91.828 74.153 90.214 90.5 90.214 90.5M95 59.139A2.044 2.044 0 0 1 92.955 61.175H82.152C82.033 60.547 81.84 59.919 81.513 59.33 81.233 58.829 80.522 57.478 79.531 55.594 78.101 52.875 76.048 48.987 73.85 44.892H92.954C94.08 44.892 94.999 45.807 94.999 46.926z" fill="#da0c81" data-fill-palette-color="accent"></path></svg></g></svg></g></svg></g><defs></defs></svg><rect width="395.52" height="96.71467676332804" fill="none" stroke="none" visibility="hidden"></rect></g></svg></g></svg>